<?xml version="1.0" encoding="UTF-8" standalone="no"?>
<!-- Generator: Adobe Illustrator 12.0.0, SVG Export Plug-In  -->

<svg
   xmlns:dc="http://purl.org/dc/elements/1.1/"
   xmlns:cc="http://creativecommons.org/ns#"
   xmlns:rdf="http://www.w3.org/1999/02/22-rdf-syntax-ns#"
   xmlns:svg="http://www.w3.org/2000/svg"
   xmlns="http://www.w3.org/2000/svg"
   xmlns:sodipodi="http://sodipodi.sourceforge.net/DTD/sodipodi-0.dtd"
   xmlns:inkscape="http://www.inkscape.org/namespaces/inkscape"
   version="1.1"
   width="204.17432"
   height="52.754883"
   viewBox="0 0 204.17432 52.754883"
   enable-background="new 0 0 252 90"
   xml:space="preserve"
   id="svg5758"
   inkscape:version="0.91 r13725"
   sodipodi:docname="logo.svg"><metadata
     id="metadata5816"><rdf:RDF><cc:Work
         rdf:about=""><dc:format>image/svg+xml</dc:format><dc:type
           rdf:resource="http://purl.org/dc/dcmitype/StillImage" /><dc:title></dc:title></cc:Work></rdf:RDF></metadata><sodipodi:namedview
     pagecolor="#ffffff"
     bordercolor="#666666"
     borderopacity="1"
     objecttolerance="10"
     gridtolerance="10"
     guidetolerance="10"
     inkscape:pageopacity="0"
     inkscape:pageshadow="2"
     inkscape:window-width="1920"
     inkscape:window-height="1017"
     id="namedview5814"
     showgrid="false"
     inkscape:zoom="2.8284271"
     inkscape:cx="46.335208"
     inkscape:cy="4.5879307"
     inkscape:window-x="0"
     inkscape:window-y="30"
     inkscape:window-maximized="1"
     inkscape:current-layer="svg5758"
     fit-margin-top="0"
     fit-margin-left="0"
     fit-margin-right="0"
     fit-margin-bottom="0" /><defs
     id="defs5760" /><rect
     width="252"
     height="90"
     id="rect5762"
     x="-23.769043"
     y="-19.123047" /><path
     d="m 42.35791,20.819824 c 0,2.504395 -1.551758,4.365234 -4.654785,5.586426 -2.410156,0.951172 -5.349121,1.43164 -8.819336,1.43164 l -14.224609,0 c -3.729981,0 -6.862305,-0.433593 -9.407227,-1.291015 C 1.753906,25.371094 0,23.49414 0,20.912109 L 0,7.102051 C 0,4.621094 1.783203,2.789062 5.358887,1.600098 8.182129,0.710937 11.294922,0.262207 14.707031,0.262207 l 5.647949,0 c 1.52295,0 2.28418,0.679687 2.28418,2.040527 0,1.367188 -0.76123,2.055176 -2.28418,2.055176 l -1.725097,0 c -0.164063,0 -0.259766,-0.0059 -0.279786,-0.02295 C 17.916992,4.3208 17.530762,4.31396 17.193847,4.30615 16.855957,4.29785 16.577148,4.29004 16.375,4.29004 9.638183,4.29004 6.26416,5.224122 6.26416,7.092774 l 0,13.797364 c 0,1.870605 2.82373,2.807129 8.47168,2.807129 l 14.158203,0 c 1.349121,0 2.794922,-0.201172 4.317871,-0.611329 1.917969,-0.516113 2.880859,-1.205078 2.880859,-2.085937 l 0,-2.934082 -8.802734,0 c -1.161133,0 -2.111816,-0.993652 -2.111816,-2.208984 0,-1.216797 0.950683,-2.210938 2.111816,-2.210938 l 10.584961,0 c 0.535156,-0.05518 1.301758,-0.04883 2.286133,-0.04883 1.464844,0 2.196777,0.587891 2.196777,1.770019 l 0,5.452637"
     id="path5764"
     inkscape:connector-curvature="0"
     style="fill:#ffffff" /><path
     d="m 79.320797,20.958984 0,-8.356933 c 0,-1.717286 -2.42871,-2.600098 -7.343746,-2.600098 l -9.714844,0 c -1.792969,0 -3.412109,0.186035 -4.858398,0.557129 -2.023926,0.559082 -3.006836,1.348144 -3.006836,2.414062 l 0,7.98584 c 0,1.020996 1.041015,1.811035 3.064941,2.274902 1.388184,0.324219 3.007324,0.465332 4.85791,0.465332 l 9.657227,0 c 1.561035,0 3.063965,-0.186035 4.452146,-0.512207 1.90869,-0.509277 2.8916,-1.252929 2.8916,-2.228027 m 6.01416,0 c 0,2.507813 -1.5039,4.317871 -4.56884,5.433594 -2.13916,0.882813 -5.031254,1.34668 -8.616215,1.34668 l -9.887695,0 c -3.296387,0 -6.246094,-0.463867 -8.90625,-1.34668 -3.295898,-1.161621 -4.915039,-2.972656 -4.915039,-5.433594 l 0,-7.98584 c 0,-2.414062 1.61914,-4.270019 4.85791,-5.522949 2.428223,-0.977051 5.376953,-1.439453 8.905274,-1.439453 l 9.9458,0 c 8.790035,0 13.185055,2.275391 13.185055,6.918457 l 0,8.029785 z"
     id="path5766"
     inkscape:connector-curvature="0"
     style="fill:#ffffff" /><path
     d="m 157.41651,8.237793 c 0,1.207031 -0.92578,1.811035 -2.66016,1.811035 -0.23144,0 -0.57812,0 -1.04102,-0.04687 l -1.0996,0 c -4.56836,0 -6.82422,0.882812 -6.82422,2.740234 l 0,13.185547 c 0,0.882813 -0.46094,1.439453 -1.27051,1.671875 -0.34863,0.09375 -1.21484,0.139649 -2.60254,0.139649 -1.38867,0 -2.08203,-0.604493 -2.08203,-1.811524 l 0,-13.185547 c 0,-2.879394 1.79297,-4.783203 5.43652,-5.803222 2.19727,-0.651856 5.49317,-0.930176 9.88965,-0.930176 1.50391,9.76e-4 2.25391,0.743164 2.25391,2.229004"
     id="path5768"
     inkscape:connector-curvature="0"
     style="fill:#ffffff" /><path
     d="m 192.4126,20.958984 0,-8.356933 c 0,-1.717286 -2.42871,-2.600098 -7.34277,-2.600098 l -9.71485,0 c -1.79394,0 -3.41211,0.186035 -4.8584,0.557129 -2.02343,0.559082 -3.00585,1.348144 -3.00585,2.414062 l 0,7.98584 c 0,1.020996 1.04101,1.811035 3.06347,2.274902 1.38867,0.324219 3.00684,0.465332 4.85449,0.465332 l 9.66016,0 c 1.56055,0 3.0625,-0.186035 4.45117,-0.512207 1.90918,-0.509277 2.89258,-1.252929 2.89258,-2.228027 m 6.01367,0 c 0,2.507813 -1.5039,4.317871 -4.56738,5.433594 -2.13965,0.882813 -5.03223,1.34668 -8.61621,1.34668 l -9.8877,0 c -3.29785,0 -6.24609,-0.463867 -8.90527,-1.34668 -3.29785,-1.161621 -4.91602,-2.972656 -4.91602,-5.433594 l 0,-7.98584 c 0,-2.414062 1.61817,-4.270019 4.85645,-5.522949 2.42969,-0.977051 5.37793,-1.439453 8.90527,-1.439453 l 9.94532,0 c 8.78906,0 13.18554,2.275391 13.18554,6.918457 l 0,8.029785 z"
     id="path5770"
     inkscape:connector-curvature="0"
     style="fill:#ffffff" /><path
     d="m 128.18799,10.26416 0,-3.762207 c 0,-1.578125 -2.72461,-2.414063 -8.1709,-2.414063 l -22.195313,0 0,9.565918 22.195313,0 c 5.44629,1e-6 8.1709,-1.161621 8.1709,-3.389648 m 6.25879,0.185059 c 0,2.739746 -1.7373,4.735839 -5.15723,5.991699 -2.66601,0.881347 -5.85449,1.299316 -9.61914,1.299316 l -21.848633,0 0,8.082031 c 0,0.88086 -0.40576,1.4375 -1.33301,1.669922 -0.23193,0.09375 -1.15869,0.140625 -2.72363,0.140625 -1.44922,0 -2.20215,-0.603515 -2.20215,-1.810547 l 0,-24.056152 C 91.562987,0.604004 92.315917,0 93.765137,0 l 26.194343,0 c 3.53515,0 6.54882,0.417969 9.03906,1.162109 3.65234,1.112793 5.44824,2.785157 5.44824,4.96875 l 0,4.31836 0,0 z"
     id="path5772"
     inkscape:connector-curvature="0"
     style="fill:#ffffff" /><rect
     x="155.53418"
     y="31.525391"
     width="23.84082"
     height="18.229492"
     id="rect5784"
     style="fill:#00aeef" /><rect
     x="161.53369"
     y="32.525391"
     width="23.841797"
     height="18.229492"
     id="rect5786"
     style="fill:#00aeef" /><rect
     x="167.53467"
     y="33.523438"
     width="23.839844"
     height="18.228516"
     id="rect5788"
     style="fill:#005dac" /><rect
     x="173.53369"
     y="34.525391"
     width="23.841797"
     height="18.229492"
     id="rect5790"
     style="fill:#ffffff" /><path
     d="m 22.293945,44.480469 1.846192,0 c -0.02002,-0.635743 0.433105,-0.957032 1.344726,-0.953125 0.753907,0.01563 1.175293,0.257812 1.262207,0.714843 0,0.587891 0.01172,1.140625 0.02393,1.691407 -0.404785,-0.473633 -1.15918,-0.746094 -2.262207,-0.822266 -1.744629,0.164063 -2.586914,0.96875 -2.522949,2.419922 0.06299,1.267578 0.968262,1.941406 2.713379,2.013672 0.916992,0.04102 1.614746,-0.230469 2.105957,-0.845703 0.0127,0.267578 0.0127,0.507812 0.0127,0.75 l 1.701172,0 c 0.01318,-1.839844 0.01318,-3.666016 0.01318,-5.494141 -0.428223,-0.953125 -1.147461,-1.460937 -2.143067,-1.523437 -0.876953,-0.02441 -1.741211,-0.02441 -2.605957,-0.02441 -1.079102,0.301757 -1.562988,0.989257 -1.489258,2.073242"
     id="path5792"
     inkscape:connector-curvature="0"
     style="fill:#ffffff" /><path
     d="m 14.363769,42.361328 1.75,0 c 1.30127,0 2.366211,1.048828 2.366211,2.330078 l 0,1.464844 -4.73291,0 c -0.199219,1.441406 0.171875,2.140625 1.09082,2.099609 0.335938,-0.01953 0.691895,-0.01953 1.050293,-0.01953 0.609864,0.05469 0.89795,-0.275391 0.884766,-1.072266 l 1.708008,0 0,0.04102 c 0,1.28125 -1.064941,2.330078 -2.365723,2.330078 l -1.75,0 c -1.302246,0 -2.367187,-1.048828 -2.367187,-2.330078 l 0,-2.513672 c -9.77e-4,-1.28125 1.063965,-2.330078 2.365722,-2.330078"
     id="path5794"
     inkscape:connector-curvature="0"
     style="fill:#ffffff" /><path
     d="m 3.49707,39.435547 0,9.93457 5.762696,0 c 1.563476,0.104492 2.358398,-0.77539 2.387207,-2.615234 0.06885,-1.285157 -0.459961,-2.125 -1.604981,-2.496094 0.898926,-0.171875 1.379883,-0.927735 1.420898,-2.286133 -0.09668,-1.613281 -0.987793,-2.467773 -2.675781,-2.576172 -1.785156,0.0059 -3.567871,0.01172 -5.290039,0.03906"
     id="path5796"
     inkscape:connector-curvature="0"
     style="fill:#ffffff" /><path
     d="m 5.411133,41.105469 0,2.535156 c 0.993652,-0.02148 1.928711,-0.02148 2.86084,-0.02148 0.810058,0.01367 1.200195,-0.392578 1.192871,-1.193359 -0.04102,-0.728516 -0.383789,-1.148437 -1.027832,-1.279297 -1.01709,0.0078 -1.990235,-0.0059 -3.025879,-0.04102"
     id="path5798"
     inkscape:connector-curvature="0" /><path
     d="m 5.411133,45.0625 0,2.759765 c 1.063965,-0.02148 2.063965,-0.02148 3.062988,-0.02148 0.867676,0.01563 1.287109,-0.425781 1.278809,-1.300781 -0.04395,-0.792969 -0.411133,-1.25 -1.103028,-1.392578 -1.085937,0.0059 -2.128906,-0.0078 -3.238769,-0.04492"
     id="path5800"
     inkscape:connector-curvature="0" /><path
     d="m 16.771973,45.185547 c 0.08984,-1.078125 -0.38379,-1.59375 -1.439942,-1.563477 -1.173828,-0.0078 -1.702148,0.520508 -1.584961,1.585938 1.007813,-0.04199 2.015137,-0.04199 3.024903,-0.02246"
     id="path5802"
     inkscape:connector-curvature="0" /><path
     d="m 26.770996,47.017578 c -0.342773,-0.606445 -1.095215,-0.810547 -2.258789,-0.603516 -0.645019,0.28125 -0.893066,0.708985 -0.742188,1.289063 0.167969,0.730469 0.949219,0.941406 2.357911,0.599609 0.51123,-0.205078 0.725097,-0.628906 0.643066,-1.285156"
     id="path5804"
     inkscape:connector-curvature="0" /><path
     d="m 201.6333,25.285156 c 1.40235,0 2.54102,1.136719 2.54102,2.541016 0,1.402343 -1.13867,2.541015 -2.54102,2.541015 -1.40136,0 -2.54101,-1.138672 -2.54101,-2.541015 0,-1.404297 1.13965,-2.541016 2.54101,-2.541016"
     id="path5806"
     inkscape:connector-curvature="0"
     style="fill:#ffffff" /><path
     d="m 201.6333,25.660156 c 1.19336,0 2.16602,0.970703 2.16602,2.166016 0,1.195312 -0.97266,2.164062 -2.16602,2.164062 -1.19433,0 -2.16406,-0.96875 -2.16406,-2.164062 0,-1.195313 0.96973,-2.166016 2.16406,-2.166016"
     id="path5808"
     inkscape:connector-curvature="0" /><path
     d="m 200.77002,28.882812 0,-2.402343 1.07031,0 c 0.21583,0 0.37891,0.01953 0.48829,0.06348 0.11328,0.04297 0.20117,0.119141 0.27148,0.229492 0.0664,0.106446 0.0996,0.228516 0.0996,0.360352 0,0.170898 -0.0547,0.314453 -0.16602,0.432617 -0.10937,0.117188 -0.2832,0.188477 -0.51464,0.222657 0.0859,0.03906 0.14941,0.08008 0.19238,0.11914 0.0947,0.08594 0.18262,0.19336 0.2666,0.320313 l 0.41992,0.65332 -0.40136,0 -0.31836,-0.501953 c -0.0957,-0.143555 -0.17188,-0.253906 -0.23047,-0.328125 -0.0615,-0.0791 -0.11719,-0.132813 -0.16407,-0.163086 -0.0469,-0.0293 -0.0937,-0.05176 -0.14453,-0.0625 -0.0361,-0.0059 -0.0957,-0.0098 -0.17968,-0.0098 l -0.36914,0 0,1.06543 -0.32032,0 0,9.76e-4 z"
     id="path5810"
     inkscape:connector-curvature="0"
     style="fill:#ffffff" /><path
     d="m 201.08838,27.539062 0.68848,0 c 0.14551,0 0.25879,-0.01367 0.34277,-0.04492 0.082,-0.0293 0.14551,-0.07813 0.1875,-0.142578 0.043,-0.06641 0.0625,-0.139648 0.0625,-0.217773 0,-0.112305 -0.0391,-0.207031 -0.12305,-0.27832 -0.082,-0.07422 -0.21289,-0.111328 -0.39355,-0.111328 l -0.76465,0 0,0.794921"
     id="path5812"
     inkscape:connector-curvature="0" /><text
     xml:space="preserve"
     style="font-style:normal;font-weight:normal;font-size:40px;line-height:125%;font-family:sans-serif;letter-spacing:0px;word-spacing:0px;fill:#000000;fill-opacity:1;stroke:none;stroke-width:1px;stroke-linecap:butt;stroke-linejoin:miter;stroke-opacity:1"
     x="31.780762"
     y="49.445557"
     id="text4348"
     sodipodi:linespacing="125%"><tspan
       sodipodi:role="line"
       id="tspan4350"
       x="31.780762"
       y="49.445557"
       style="font-style:italic;font-variant:normal;font-weight:bold;font-stretch:normal;font-size:15px;font-family:Verdana;-inkscape-font-specification:'Verdana Bold Italic';fill:#ffffff">BURST TIMER.</tspan></text>
</svg>